<?xml version="1.0" encoding="UTF-8"?>
<svg width="21px" height="21px" viewBox="0 0 21 21" version="1.1" xmlns="http://www.w3.org/2000/svg" xmlns:xlink="http://www.w3.org/1999/xlink">
    <title>icon-external-link-50pct</title>
    <g id="🔹-Footer-/-Link" stroke="none" stroke-width="1" fill="none" fill-rule="evenodd">
        <g id="M-/-footer" transform="translate(-552.000000, -576.000000)" fill="#808080" fill-rule="nonzero">
            <g id="Group-7" transform="translate(189.000000, 278.000000)">
                <path d="M371.638739,300.636431 C372.181567,300.636431 372.631713,301.100105 372.628126,301.640164 C372.624553,302.180172 372.176277,302.620662 371.64065,302.629417 L371.624392,302.62955 L367.561477,302.62955 C367.491265,302.62955 367.420544,302.628605 367.349508,302.627336 L367.178518,302.623986 L367.178518,302.623986 L367.092756,302.622442 C366.906828,302.619449 366.72035,302.61931 366.536741,302.632951 L366.528029,302.633626 L366.516155,302.635921 C366.422897,302.654306 366.33116,302.678443 366.240999,302.70835 L366.218788,302.715835 L366.199846,302.725367 C366.113654,302.769176 366.030571,302.818298 365.950628,302.872679 L365.946876,302.875227 L365.945598,302.876376 C365.874252,302.939555 365.807106,303.006892 365.744173,303.078371 L365.73056,303.093979 L365.724117,303.103628 C365.676489,303.175561 365.633067,303.249953 365.593874,303.326802 L365.580599,303.353204 L365.576746,303.364364 C365.547717,303.449402 365.52383,303.535869 365.505066,303.623748 L365.500892,303.643824 L365.499421,303.663841 C365.49057,303.793752 365.490803,303.924824 365.491878,304.055368 L365.492559,304.133617 C365.492776,304.15967 365.49296,304.185689 365.493046,304.211659 L365.493099,304.241935 L365.493099,314.899832 C365.493099,314.92811 365.492946,314.956458 365.492725,314.984856 L365.491563,315.11292 C365.490637,315.226943 365.490679,315.341313 365.497158,315.454823 L365.498723,315.47999 L365.49947,315.48387 C365.517854,315.577128 365.541991,315.668864 365.571898,315.759026 L365.579382,315.781216 L365.588913,315.800178 C365.632718,315.88637 365.681835,315.96945 365.736218,316.049387 L365.738641,316.052929 L365.739934,316.054404 C365.803116,316.12575 365.870448,316.192896 365.941924,316.255829 L365.957437,316.269334 L365.967187,316.275871 C366.039121,316.323494 366.113509,316.366914 366.190354,316.406106 L366.216817,316.419382 L366.227923,316.423255 C366.312963,316.452285 366.399425,316.476171 366.487301,316.494936 L366.50735,316.499089 L366.527412,316.500583 C366.644332,316.508553 366.762193,316.509167 366.879762,316.50843 L367.036241,316.507172 C367.049249,316.507088 367.062246,316.50702 367.075231,316.506977 L367.105507,316.506925 L377.763391,316.506925 C377.791669,316.506925 377.820017,316.507078 377.848415,316.507299 L377.976479,316.508461 C378.090502,316.509387 378.204873,316.509344 378.318382,316.502866 L378.343725,316.501281 L378.347429,316.500585 C378.440687,316.482203 378.532424,316.458062 378.622585,316.428151 L378.644641,316.420688 L378.663738,316.411121 C378.74993,316.36731 378.83301,316.318193 378.912947,316.263815 L378.916598,316.261274 L378.917964,316.260101 C378.98931,316.196927 379.056456,316.129597 379.119389,316.058122 L379.13287,316.042611 L379.139432,316.032834 C379.187054,315.960896 379.230474,315.886504 379.269666,315.80966 L379.283007,315.78301 L379.286816,315.772098 C379.315845,315.687055 379.339732,315.600588 379.358496,315.512714 L379.362869,315.491592 L379.364266,315.473346 C379.37418,315.332495 379.37364,315.190116 379.372178,315.04844 L379.371523,314.987771 C379.371158,314.954097 379.370819,314.920481 379.370633,314.886953 L379.370485,314.83673 L379.370485,310.315126 C379.370485,309.772321 379.834182,309.322153 380.374264,309.32574 C380.914272,309.329313 381.354762,309.777589 381.363651,310.313216 L381.363651,310.329473 L381.363651,315.175042 C381.363651,315.447419 381.343945,315.71291 381.292556,315.98305 C381.17645,316.593186 380.83455,317.207262 380.375105,317.626234 C380.14411,317.836882 379.882537,318.039537 379.594728,318.168219 L379.521432,318.200929 C379.357803,318.273629 379.189213,318.345171 379.016187,318.390646 C378.823562,318.44126 378.624715,318.465571 378.427019,318.486339 C378.322475,318.497319 378.218471,318.499648 378.11383,318.5 L366.750988,318.5 C365.892011,318.5 365.043927,318.192087 364.433747,317.573848 C364.214309,317.35151 364.009284,317.091244 363.869642,316.809967 C363.726722,316.522047 363.598305,316.210061 363.555441,315.888598 L363.546781,315.822926 C363.522636,315.637222 363.502371,315.454366 363.500194,315.267695 L363.5,315.234712 L363.5,303.900435 C363.5,303.057732 363.785728,302.252514 364.366195,301.632526 C364.580275,301.403899 364.837906,301.197546 365.11294,301.046944 C365.392712,300.893752 365.70574,300.76197 366.022133,300.706307 C366.284625,300.660115 366.542419,300.638283 366.806098,300.636431 L366.840526,300.636431 L371.638739,300.636431 Z M378.471456,316.489655 C378.430836,316.511438 378.390032,316.527994 378.349103,316.540484 L378.343725,316.541976 L378.324083,316.558986 C378.28512,316.591656 378.245893,316.619827 378.206407,316.643501 L378.471456,316.489655 L378.471456,316.489655 Z M366.376475,316.485648 L366.632357,316.639494 L366.632357,316.639494 C366.591714,316.61347 366.551362,316.58286 366.511302,316.547657 L366.50735,316.544022 L366.497122,316.540803 C366.456764,316.526863 366.416532,316.508837 366.376475,316.485648 Z M378.778749,316.369917 C378.743427,316.391825 378.707848,316.412352 378.672015,316.431499 L378.644641,316.445801 L378.642125,316.447706 C378.605996,316.474438 378.569327,316.499792 378.532122,316.523764 L378.778749,316.369917 L378.778749,316.369917 Z M366.090039,316.371157 L366.32513,316.525004 C366.295623,316.505096 366.266454,316.484278 366.237622,316.462551 L366.216817,316.446662 L366.204766,316.440131 C366.166229,316.418805 366.127986,316.395815 366.090039,316.371157 Z M365.849567,316.192614 L366.052244,316.347068 C366.020737,316.322602 365.989948,316.297404 365.959879,316.271475 L365.957437,316.269334 L365.947268,316.262535 C365.914175,316.240127 365.881608,316.216819 365.849567,316.192614 Z M378.826595,316.336905 L379.029627,316.178955 L379.03049,316.178311 C378.998497,316.203154 378.965954,316.227089 378.932866,316.250112 L378.916598,316.261274 L378.90004,316.275809 C378.876025,316.296636 378.851543,316.317002 378.826595,316.336905 Z M365.663119,315.963035 L365.821027,316.166002 L365.806936,316.147668 C365.787348,316.121898 365.768344,316.095777 365.749924,316.069306 L365.738641,316.052929 L365.724225,316.03648 C365.703395,316.012465 365.683026,315.987983 365.663119,315.963035 Z M379.210584,315.947826 C379.186163,315.97931 379.160965,316.010098 379.135035,316.040167 L379.13287,316.042611 L379.126095,316.052754 C379.103687,316.085848 379.080379,316.118416 379.056174,316.150457 L379.210584,315.947826 Z M365.527196,315.668562 L365.681042,315.915189 L365.681042,315.915189 C365.659134,315.879867 365.638609,315.844288 365.619464,315.808455 L365.605194,315.781216 L365.603237,315.778565 C365.576509,315.742436 365.55116,315.705768 365.527196,315.668562 Z M379.388564,315.674894 C379.368657,315.704397 379.347838,315.733564 379.326111,315.762395 L379.310323,315.78301 L379.303691,315.795256 C379.282366,315.833795 379.259375,315.872038 379.234718,315.909986 L379.388564,315.674894 Z M379.503054,315.367668 C379.483536,315.398146 379.461439,315.428462 379.436759,315.458615 L379.408535,315.491592 L379.404664,315.503504 C379.390448,315.543682 379.372285,315.583721 379.349208,315.623572 L379.503054,315.367668 L379.503054,315.367668 Z M365.476205,315.342848 L365.630051,315.607896 L365.630051,315.607896 C365.608255,315.567276 365.591687,315.526473 365.57919,315.485543 L365.577606,315.47999 L365.560813,315.460523 C365.528116,315.42156 365.499915,315.382334 365.476205,315.342848 Z M382.510614,298.500018 C382.645462,298.500937 382.774172,298.529601 382.891519,298.580455 L382.904511,298.586196 C383.013495,298.633214 383.115426,298.7005 383.204265,298.788224 C383.309433,298.892078 383.386332,299.015849 383.434716,299.148715 L383.43962,299.162492 C383.476976,299.264681 383.498135,299.374167 383.5,299.487567 L383.5,299.511078 L383.492672,307.425767 L383.492672,307.425767 C383.492185,307.968572 383.029375,308.41874 382.488938,308.415175 C381.94383,308.411544 381.499042,307.954203 381.499551,307.41142 L381.504638,301.903041 L372.009023,311.389953 C371.62468,311.773942 370.987532,311.780385 370.599757,311.397481 C370.215126,311.017677 370.208594,310.371497 370.592207,309.988238 L380.090955,300.498256 L374.574331,300.49318 L374.574331,300.49318 C374.031525,300.49267 373.581379,300.02986 373.584945,299.489446 C373.588575,298.944361 374.045917,298.499573 374.5887,298.500018 L382.38669,298.507199 C382.427414,298.502206 382.468781,298.499763 382.510614,298.500018 Z M365.632775,303.512904 L365.478929,303.768808 C365.504953,303.728165 365.535562,303.687812 365.570765,303.64775 L365.574313,303.643824 L365.577627,303.63355 C365.591562,303.593192 365.609586,303.55296 365.632775,303.512904 Z M365.684407,303.22649 L365.530561,303.461581 L365.530561,303.461581 C365.550464,303.432074 365.571277,303.402904 365.593,303.374071 L365.608888,303.353204 L365.615449,303.341208 C365.63677,303.302672 365.659755,303.264432 365.684407,303.22649 Z M365.807388,302.986018 L365.652934,303.188695 C365.671283,303.165065 365.690044,303.141838 365.709217,303.119015 L365.73056,303.093979 L365.737455,303.08371 C365.759866,303.050619 365.783178,303.018055 365.807388,302.986018 Z M366.036967,302.79957 L365.833935,302.957502 L365.852336,302.943389 C365.87811,302.923805 365.904234,302.904802 365.930707,302.886384 L365.946876,302.875227 L365.963522,302.860668 C365.987537,302.83984 366.012019,302.819473 366.036967,302.79957 Z M366.331463,302.663647 L366.084836,302.817493 L366.084836,302.817493 C366.120158,302.795586 366.155737,302.77506 366.191569,302.755915 L366.218788,302.741649 L366.221459,302.739692 C366.257588,302.712962 366.294257,302.687611 366.331463,302.663647 Z M366.657177,302.612657 L366.392129,302.766503 L366.392129,302.766503 C366.428101,302.7472 366.46422,302.730834 366.500461,302.717022 L366.528029,302.707087 L366.539501,302.697265 C366.578464,302.664568 366.617691,302.636367 366.657177,302.612657 Z" id="icon-external-link-50pct"></path>
            </g>
        </g>
    </g>
</svg>