<svg width="24" height="24" viewBox="0 0 24 24" fill="none" xmlns="http://www.w3.org/2000/svg">
<path d="M7 20.5385C7 21.346 7.66324 22 8.4821 22H16.8449C18.2825 22 18.8346 21.6346 19.6238 19.5081L20.6687 14.9956C21.7988 10.304 19.9425 10 16.5003 10H16.1557C15.926 10 15.7629 9.81731 15.7889 9.59442L16.5003 5.29827C16.6448 4.07423 15.674 3 14.4216 3H13.9807C13.21 3 12.1688 3.6175 12.1688 4.37385L11.7983 6.28846C11.0573 10.3077 7 10 7 10" fill="white"/>
<path d="M2 10H6V20.5C6 21.3287 5.40333 22 4.66667 22H2V10Z" fill="white"/>
</svg>
